<?xml version="1.0" encoding="utf-8"?>
<!-- Generator: Adobe Illustrator 16.0.0, SVG Export Plug-In . SVG Version: 6.00 Build 0)  -->
<!DOCTYPE svg PUBLIC "-//W3C//DTD SVG 1.1//EN" "http://www.w3.org/Graphics/SVG/1.1/DTD/svg11.dtd">
<svg version="1.1" id="Layer_1" xmlns="http://www.w3.org/2000/svg" xmlns:xlink="http://www.w3.org/1999/xlink" x="0px" y="0px"
	 width="700px" height="698px" viewBox="0 0 700 698" enable-background="new 0 0 700 698" xml:space="preserve">
<g transform="translate(0.000000,698.000000) scale(0.100000,-0.100000)">
	<path d="M4715.996,6588.999c-63.994-76.001-82.998-151.001-45.996-183.999c24.004-21.001,72.002-23.999,94.004-5
		C4790.996,6421,4780,6577.998,4750,6612.998C4745.996,6617.998,4730.996,6607.001,4715.996,6588.999z"/>
	<path d="M4245,6482.001c-60.996-40-97.002-96.001-300-467.001c-114.004-208.999-234.004-428.999-267.998-490
		c-119.004-213.999-105-178.999-232.998-600c-136.006-446.001-176.006-591.001-215-795c-5-30-23.008-100-39.004-155
		c-55.996-192.002-60-248.999-60-777.002c0-265.996-5-547.998-10.996-627.998c-7.002-80-11.006-245-10-365.996
		C3110,2070,3105.996,1972.002,3100,1955c-10-25-14.004-27.002-51.001-22.002c-31.001,4.004-52.998,17.002-93.999,56.006
		c-42.002,40-61.001,50.996-87.002,50.996c-43.999,0-95.996-32.998-103.999-65c-13.999-57.998,2.002-92.998,111.001-227.998
		c145-180,249.004-337.002,297.998-454.004c55-128.994,87.998-183.994,131.006-217.002c23.994-17.998,47.998-53.994,75.996-113.994
		c42.998-91.006,75.996-134.004,122.002-157.998c40.996-21.006,50.996-18.008,100,30c45.996,46.992,63.994,76.992,92.998,160.996
		c9.004,27.998,24.004,69.004,32.998,90.996c22.002,56.006,7.998,86.006-55.996,118.008c-27.002,13.994-61.006,38.994-76.006,55.996
		c-32.998,40-32.998,75.996-1.992,235c12.998,65.996,26.992,157.998,30.996,205c19.004,249.004,57.998,452.002,127.002,667.998
		c73.994,232.002,143.994,356.006,270.996,482.998C4075,2902.002,4080,2917.998,4050,2945
		c-45.996,42.002-174.004,25.996-224.004-29.004C3772.001,2857.002,3614.003,2437.002,3540,2155
		c-17.002-65.996-49.004-180.996-70.996-255c-61.006-202.002-74.004-224.004-113.008-180.996
		c-21.992,23.994-28.994,112.998-46.992,560.996c-14.004,365.996-14.004,735.996,0,1115c17.998,452.002,47.998,688.999,127.998,1000
		c18.994,77.002,38.994,157.002,43.994,178.999c35,146.001,90,313.003,146.006,446.001c35.996,85,73.994,182.998,85,218.999
		c35,115,208.994,448.003,273.994,527.002C4019.003,5805,4059.003,5855,4075,5877.998c42.002,57.002,77.002,75,140.996,73.003
		c77.002-1.001,103.008,23.999,137.002,136.001c34.004,108.999,47.002,186.997,47.002,280c0,60-4.004,75.996-22.998,97.998
		C4347.001,6501,4285.996,6507.998,4245,6482.001z"/>
	<path d="M4785.996,6220c-50-55-45.996-80,14.004-92.998c14.004-2.002,49.004-15,77.998-28.003c57.002-25,80-17.998,67.002,20
		c-12.998,42.002-87.002,141-105,141C4830,6260,4805.996,6242.002,4785.996,6220z"/>
	<path d="M4544.003,6082.998c-34.004-35.996-43.008-65.996-25-77.998c22.998-12.998,105.996-22.998,117.998-12.998
		c30,25-2.002,127.998-39.004,127.998C4587.001,6120,4562.001,6102.998,4544.003,6082.998z"/>
	<path d="M2343.999,2205.996c-16.001-11.992-18.999-25.996-17.998-97.998c0-102.002,26.001-155.996,90-193.994
		c45-26.006,121.001-33.008,141.997-12.002c7.002,7.002,12.002,35,12.002,62.998c0,60-42.998,140.996-112.998,212.998
		C2412.998,2222.998,2378.999,2230.996,2343.999,2205.996z"/>
</g>
</svg>
