 <svg version="1.0" xmlns="http://www.w3.org/2000/svg" width="700.000000pt" height="698.000000pt" viewBox="0 0 700.000000 698.000000" preserveAspectRatio="xMidYMid meet">
<metadata>
Created by potrace 1.12, written by Peter Selinger 2001-2015
</metadata>
<g transform="translate(0.000000,698.000000) scale(0.100000,-0.100000)" fill="#000000" stroke="none">
<path d="M4716 6589 c-64 -76 -83 -151 -46 -184 24 -21 72 -24 94 -5 27 21 16
178 -14 213 -4 5 -19 -6 -34 -24z"></path>
<path d="M4245 6482 c-61 -40 -97 -96 -300 -467 -114 -209 -234 -429 -268
-490 -119 -214 -105 -179 -233 -600 -136 -446 -176 -591 -215 -795 -5 -30 -23
-100 -39 -155 -56 -192 -60 -249 -60 -777 0 -266 -5 -548 -11 -628 -7 -80 -11
-245 -10 -366 1 -134 -3 -232 -9 -249 -10 -25 -14 -27 -51 -22 -31 4 -53 17
-94 56 -42 40 -61 51 -87 51 -44 0 -96 -33 -104 -65 -14 -58 2 -93 111 -228
145 -180 249 -337 298 -454 55 -129 88 -184 131 -217 24 -18 48 -54 76 -114
43 -91 76 -134 122 -158 41 -21 51 -18 100 30 46 47 64 77 93 161 9 28 24 69
33 91 22 56 8 86 -56 118 -27 14 -61 39 -76 56 -33 40 -33 76 -2 235 13 66 27
158 31 205 19 249 58 452 127 668 74 232 144 356 271 483 52 51 57 67 27 94
-46 42 -174 26 -224 -29 -54 -59 -212 -479 -286 -761 -17 -66 -49 -181 -71
-255 -61 -202 -74 -224 -113 -181 -22 24 -29 113 -47 561 -14 366 -14 736 0
1115 18 452 48 689 128 1000 19 77 39 157 44 179 35 146 90 313 146 446 36 85
74 183 85 219 35 115 209 448 274 527 33 39 73 89 89 112 42 57 77 75 141 73
77 -1 103 24 137 136 34 109 47 187 47 280 0 60 -4 76 -23 98 -30 36 -91 43
-132 17z"></path>
<path d="M4786 6220 c-50 -55 -46 -80 14 -93 14 -2 49 -15 78 -28 57 -25 80
-18 67 20 -13 42 -87 141 -105 141 -10 0 -34 -18 -54 -40z"></path>
<path d="M4544 6083 c-34 -36 -43 -66 -25 -78 23 -13 106 -23 118 -13 30 25
-2 128 -39 128 -11 0 -36 -17 -54 -37z"></path>
<path d="M2344 2206 c-16 -12 -19 -26 -18 -98 0 -102 26 -156 90 -194 45 -26
121 -33 142 -12 7 7 12 35 12 63 0 60 -43 141 -113 213 -44 45 -78 53 -113 28z"></path>
</g>
</svg>
