<?xml version="1.0" standalone="no"?>
<!DOCTYPE svg PUBLIC "-//W3C//DTD SVG 20010904//EN"
 "http://www.w3.org/TR/2001/REC-SVG-20010904/DTD/svg10.dtd">
<svg version="1.0" xmlns="http://www.w3.org/2000/svg"
 width="875.000000pt" height="875.000000pt" viewBox="0 0 875.000000 875.000000"
 preserveAspectRatio="xMidYMid meet">
<metadata>
Created by potrace 1.11, written by Peter Selinger 2001-2013
</metadata>
<g transform="translate(0.000000,875.000000) scale(0.100000,-0.100000)"
fill="#000000" stroke="none">
<path d="M5891 8243 c-48 -57 -47 -56 -62 -99 -21 -63 -19 -86 13 -117 25 -26
34 -29 69 -24 47 6 48 7 55 38 16 80 -7 239 -35 239 -5 0 -23 -17 -40 -37z"/>
<path d="M5322 8123 c-32 -13 -49 -28 -97 -84 -25 -30 -125 -197 -125 -210 0
-5 -4 -9 -10 -9 -5 0 -10 -4 -10 -9 0 -5 -25 -53 -55 -106 -30 -54 -55 -99
-55 -101 0 -3 -10 -21 -23 -42 -13 -20 -50 -86 -82 -147 -32 -60 -67 -126 -78
-145 -11 -19 -47 -84 -80 -145 -33 -60 -71 -130 -85 -155 -105 -189 -169 -317
-170 -340 0 -4 -13 -41 -38 -105 -4 -11 -8 -22 -9 -25 -1 -3 -4 -12 -7 -20 -9
-25 -50 -163 -52 -174 -6 -30 -60 -192 -67 -202 -5 -6 -6 -13 -4 -16 3 -3 1
-18 -6 -34 -6 -16 -12 -36 -14 -44 -2 -8 -34 -116 -70 -240 -36 -124 -67 -234
-70 -245 -2 -11 -11 -47 -20 -80 -8 -33 -18 -71 -20 -85 -3 -14 -8 -36 -11
-50 -8 -32 -13 -58 -19 -93 -7 -38 -31 -135 -44 -174 -5 -18 -7 -33 -4 -33 3
0 0 -7 -7 -15 -7 -8 -10 -15 -7 -15 4 0 0 -18 -8 -40 -8 -22 -12 -40 -10 -40
3 0 0 -11 -5 -26 -10 -25 -13 -38 -26 -124 -12 -77 -13 -132 -18 -560 -6 -489
-15 -905 -22 -1045 -3 -55 -7 -215 -9 -355 -5 -311 -7 -339 -26 -350 -14 -9
-51 -6 -87 7 -17 7 -93 67 -127 100 -41 39 -150 11 -180 -47 -22 -42 -16 -85
18 -145 26 -43 80 -120 97 -135 5 -5 100 -128 145 -189 78 -105 175 -265 226
-371 34 -69 70 -145 82 -169 12 -24 47 -72 78 -105 44 -48 149 -211 149 -233
0 -7 44 -65 70 -92 32 -34 82 -55 110 -46 33 10 95 77 130 138 35 63 100 240
100 275 0 39 -17 58 -87 102 -92 56 -120 98 -116 170 2 47 12 119 27 195 4 22
17 96 23 135 2 14 6 43 8 65 3 22 7 59 10 81 3 23 8 68 10 100 6 66 11 104 25
184 5 30 11 70 14 88 14 80 19 103 42 197 26 108 102 354 114 370 4 6 11 25
15 43 3 17 11 32 17 32 6 0 9 3 5 6 -8 8 61 145 111 217 21 32 73 94 113 139
91 99 95 109 62 142 -27 27 -29 28 -102 31 -133 6 -200 -60 -288 -281 -59
-150 -85 -219 -104 -279 -12 -38 -25 -74 -29 -80 -4 -5 -19 -50 -34 -100 -15
-49 -29 -96 -32 -103 -2 -7 -3 -13 -3 -15 0 -1 -4 -14 -10 -30 -6 -15 -13 -38
-16 -50 -2 -12 -14 -53 -25 -92 -12 -38 -23 -77 -25 -85 -1 -8 -9 -35 -16 -60
-7 -25 -14 -53 -16 -62 -1 -10 -26 -87 -54 -172 -40 -122 -55 -157 -71 -162
-53 -16 -68 44 -83 326 -3 52 -7 133 -9 180 -26 483 -26 1409 -1 1760 2 30 7
105 10 165 12 197 11 184 31 350 7 56 23 166 28 191 2 12 7 37 10 55 11 65 17
95 42 199 14 58 27 115 29 126 3 12 17 66 31 120 14 55 26 107 27 117 1 9 5
17 10 17 4 0 6 4 3 9 -3 5 -2 22 3 37 5 16 21 70 36 119 28 92 74 227 96 280
6 17 13 35 14 40 3 11 71 179 85 210 5 11 24 61 41 110 17 50 35 95 40 101 5
6 6 14 2 17 -3 4 -1 7 5 7 7 0 12 9 12 20 0 11 5 20 12 20 6 0 9 3 6 6 -6 5
138 293 151 304 3 3 17 27 31 54 21 42 71 114 157 224 44 57 102 112 129 122
16 7 54 13 84 15 63 3 89 12 108 34 16 19 52 95 57 119 2 9 10 37 18 62 32 98
42 164 42 296 0 88 -3 105 -20 124 -41 45 -97 57 -153 33z"/>
<path d="M6026 7829 c-52 -31 -100 -109 -79 -130 12 -12 170 -69 205 -75 39
-5 41 18 8 80 -26 51 -95 136 -109 136 -3 0 -14 -5 -25 -11z"/>
<path d="M5713 7647 c-36 -25 -73 -76 -73 -100 0 -9 9 -21 20 -27 32 -17 120
-23 136 -9 29 24 6 127 -34 148 -14 8 -26 5 -49 -12z"/>
<path d="M2936 2775 c-27 -25 -31 -46 -27 -145 2 -55 22 -140 33 -140 4 0 8
-5 8 -11 0 -17 49 -57 90 -75 19 -9 59 -18 87 -20 46 -3 55 -1 67 19 29 43 23
106 -17 187 -49 101 -125 182 -185 200 -26 7 -35 4 -56 -15z"/>
</g>
</svg>
